<!-- favicon.svg -->
<svg xmlns="http://www.w3.org/2000/svg" viewBox="0 0 50 50">
  <style>
    .logo-path {
      fill: none;
      stroke: #64ffda;
      stroke-width: 2.5;
      stroke-linecap: round;
      stroke-linejoin: round;
    }
    @media (prefers-color-scheme: dark) {
      .logo-path {
        stroke: #64ffda;
      }
    }
    @media (prefers-color-scheme: light) {
      .logo-path {
        stroke: #0F8B8D;
      }
    }
  </style>
  <!-- Symbole principal - Combinaison J et D -->
  <path class="logo-path" d="M15,10 L25,10 L25,30 C25,35 20,40 15,40 L10,40 L10,35 L15,35 C17.5,35 20,32.5 20,30 L20,15 L15,15 Z" />
  <path class="logo-path" d="M30,10 L40,10 C45,10 50,15 50,20 L50,30 C50,35 45,40 40,40 L30,40 L30,35 L40,35 C42.5,35 45,32.5 45,30 L45,20 C45,17.5 42.5,15 40,15 L30,15 Z" />
</svg>
