<svg width="500" height="500" xmlns="http://www.w3.org/2000/svg">
  <!-- Fond blanc -->
  <rect width="500" height="500" fill="#f8f8f8" stroke="#ccc" stroke-width="2"/>
  
  <!-- Subdivision niveau 1 - Bleu foncé -->
  <line x1="250" y1="0" x2="250" y2="500" stroke="#1a53ff" stroke-width="2.5"/>
  <line x1="0" y1="250" x2="500" y2="250" stroke="#1a53ff" stroke-width="2.5"/>
  
  <!-- Subdivision niveau 2 - Vert -->
  <line x1="125" y1="0" x2="125" y2="250" stroke="#00b300" stroke-width="2"/>
  <line x1="0" y1="125" x2="250" y2="125" stroke="#00b300" stroke-width="2"/>
  <line x1="375" y1="250" x2="375" y2="500" stroke="#00b300" stroke-width="2"/>
  <line x1="250" y1="375" x2="500" y2="375" stroke="#00b300" stroke-width="2"/>
  
  <!-- Subdivision niveau 3 - Rouge orangé -->
  <line x1="187.5" y1="0" x2="187.5" y2="125" stroke="#ff5722" stroke-width="1.5"/>
  <line x1="125" y1="62.5" x2="250" y2="62.5" stroke="#ff5722" stroke-width="1.5"/>
  <line x1="312.5" y1="250" x2="312.5" y2="375" stroke="#ff5722" stroke-width="1.5"/>
  <line x1="250" y1="312.5" x2="375" y2="312.5" stroke="#ff5722" stroke-width="1.5"/>
  
  <!-- Objets rectangulaires -->
  <rect x="140" y="30" width="40" height="25" fill="#5b9bd5" stroke="#41729f" stroke-width="1.5" opacity="0.8"/>
  <rect x="70" y="150" width="35" height="35" fill="#5b9bd5" stroke="#41729f" stroke-width="1.5" opacity="0.8"/>
  <rect x="300" y="280" width="60" height="25" fill="#5b9bd5" stroke="#41729f" stroke-width="1.5" opacity="0.8"/>
  <rect x="380" y="400" width="50" height="40" fill="#5b9bd5" stroke="#41729f" stroke-width="1.5" opacity="0.8"/>
  <rect x="20" y="30" width="70" height="30" fill="#5b9bd5" stroke="#41729f" stroke-width="1.5" opacity="0.8"/>
  <rect x="265" y="350" width="30" height="80" fill="#5b9bd5" stroke="#41729f" stroke-width="1.5" opacity="0.8"/>
  
  <!-- Objet à cheval sur plusieurs quadrants -->
  <rect x="220" y="220" width="60" height="60" fill="#ff7f7f" stroke="#d13438" stroke-width="1.5" opacity="0.8"/>
  
  <!-- Légende déplacée vers la gauche -->
  <rect x="320" y="20" width="20" height="20" fill="#5b9bd5" stroke="#41729f" stroke-width="1.5" opacity="0.8"/>
  <text x="350" y="35" font-family="Arial" font-size="14" fill="#333">Objets</text>
  
  <rect x="320" y="50" width="20" height="20" fill="#ff7f7f" stroke="#d13438" stroke-width="1.5" opacity="0.8"/>
  <text x="350" y="65" font-family="Arial" font-size="14" fill="#333">Objet à cheval</text>
  
  <line x1="320" y1="85" x2="340" y2="85" stroke="#1a53ff" stroke-width="2.5"/>
  <text x="350" y="90" font-family="Arial" font-size="14" fill="#333">Niveau 1</text>
  
  <line x1="320" y1="105" x2="340" y2="105" stroke="#00b300" stroke-width="2"/>
  <text x="350" y="110" font-family="Arial" font-size="14" fill="#333">Niveau 2</text>
  
  <line x1="320" y1="125" x2="340" y2="125" stroke="#ff5722" stroke-width="1.5"/>
  <text x="350" y="130" font-family="Arial" font-size="14" fill="#333">Niveau 3</text>
  
  <!-- Titre sur deux lignes -->
  <text x="20" y="460" font-family="Arial" font-weight="bold" font-size="16" fill="#333">Subdivision spatiale</text>
  <text x="20" y="480" font-family="Arial" font-weight="bold" font-size="16" fill="#333">dans un QuadTree</text>

</svg>
